<svg xmlns="http://www.w3.org/2000/svg" viewBox="0 0 25 20" width="25" height="20">
	<style>
		tspan { white-space:pre }
		.shp0 { fill: #ffffff } 
	</style>
	<path id="Burger-menu-icon" class="shp0" d="M1.2 0L23.8 0C24.46 0 25 0.54 25 1.2L25 1.2C25 1.86 24.46 2.4 23.8 2.4L1.2 2.4C0.54 2.4 0 1.86 0 1.2L0 1.2C0 0.54 0.54 0 1.2 0ZM1.2 8.8L23.8 8.8C24.46 8.8 25 9.34 25 10L25 10C25 10.66 24.46 11.2 23.8 11.2L1.2 11.2C0.54 11.2 0 10.66 0 10L0 10C0 9.34 0.54 8.8 1.2 8.8ZM1.2 17.6L23.8 17.6C24.46 17.6 25 18.14 25 18.8L25 18.8C25 19.46 24.46 20 23.8 20L1.2 20C0.54 20 0 19.46 0 18.8L0 18.8C0 18.14 0.54 17.6 1.2 17.6Z" />
</svg>