<svg xmlns="http://www.w3.org/2000/svg" viewBox="0 0 21 26" width="21" height="26">
	<style>
		tspan { white-space:pre }
		.shp0 { fill: #ffffff } 
	</style>
	<path id="Burger-menu-icon" class="shp0" d="M20.5 1.7L20.5 24.3C20.5 24.96 19.96 25.5 19.3 25.5L19.3 25.5C18.64 25.5 18.1 24.96 18.1 24.3L18.1 1.7C18.1 1.04 18.64 0.5 19.3 0.5L19.3 0.5C19.96 0.5 20.5 1.04 20.5 1.7ZM11.7 1.7L11.7 24.3C11.7 24.96 11.16 25.5 10.5 25.5L10.5 25.5C9.84 25.5 9.3 24.96 9.3 24.3L9.3 1.7C9.3 1.04 9.84 0.5 10.5 0.5L10.5 0.5C11.16 0.5 11.7 1.04 11.7 1.7ZM2.9 1.7L2.9 24.3C2.9 24.96 2.36 25.5 1.7 25.5L1.7 25.5C1.04 25.5 0.5 24.96 0.5 24.3L0.5 1.7C0.5 1.04 1.04 0.5 1.7 0.5L1.7 0.5C2.36 0.5 2.9 1.04 2.9 1.7Z" />
</svg>